<mxfile host="app.diagrams.net" modified="2022-05-18T07:08:06.829Z" agent="5.0 (Windows NT 10.0; WOW64) AppleWebKit/537.36 (KHTML, like Gecko) Chrome/86.0.4240.198 Safari/537.36" etag="XZAAkaYtUzqgj85NliGU" version="18.0.7" type="github">
  <diagram id="HGY5p40dpCj6Ilmdr5W0" name="第 1 页">
    <mxGraphModel dx="1550" dy="851" grid="1" gridSize="10" guides="1" tooltips="1" connect="1" arrows="1" fold="1" page="1" pageScale="1" pageWidth="827" pageHeight="1169" math="0" shadow="0">
      <root>
        <mxCell id="0" />
        <mxCell id="1" parent="0" />
        <mxCell id="YXY1S4yLQl2Z7X27-1y_-1" value="Entity" style="swimlane;childLayout=stackLayout;horizontal=1;startSize=20;horizontalStack=0;fontSize=10;fontStyle=1;strokeWidth=1;resizeParent=0;resizeLast=1;shadow=0;dashed=0;align=center;sketch=0;fontColor=#1D3557;fillColor=#A8DADC;swimlaneFillColor=default;rounded=1;glass=0;spacing=2;" parent="1" vertex="1">
          <mxGeometry x="110" y="140" width="150" height="40" as="geometry" />
        </mxCell>
        <mxCell id="YXY1S4yLQl2Z7X27-1y_-2" value="xxx" style="align=left;strokeColor=none;fillColor=none;spacingLeft=4;fontSize=10;verticalAlign=top;resizable=0;rotatable=0;part=1;sketch=0;fontColor=#1D3557;rounded=1;fontStyle=1" parent="YXY1S4yLQl2Z7X27-1y_-1" vertex="1">
          <mxGeometry y="20" width="150" height="20" as="geometry" />
        </mxCell>
        <mxCell id="YXY1S4yLQl2Z7X27-1y_-4" value="" style="shape=cylinder3;whiteSpace=wrap;html=1;boundedLbl=1;backgroundOutline=1;size=15;" parent="1" vertex="1">
          <mxGeometry x="350" y="140" width="60" height="80" as="geometry" />
        </mxCell>
        <mxCell id="YXY1S4yLQl2Z7X27-1y_-5" value="" style="ellipse;shape=cloud;whiteSpace=wrap;html=1;" parent="1" vertex="1">
          <mxGeometry x="600" y="150" width="120" height="80" as="geometry" />
        </mxCell>
        <mxCell id="YXY1S4yLQl2Z7X27-1y_-6" value="" style="shape=xor;whiteSpace=wrap;html=1;" parent="1" vertex="1">
          <mxGeometry x="240" y="290" width="60" height="80" as="geometry" />
        </mxCell>
        <mxCell id="YXY1S4yLQl2Z7X27-1y_-7" value="" style="shape=tape;whiteSpace=wrap;html=1;" parent="1" vertex="1">
          <mxGeometry x="450" y="290" width="120" height="100" as="geometry" />
        </mxCell>
        <mxCell id="JSOpVChaA4LmyA-XEy1m-1" value="" style="shape=tape;whiteSpace=wrap;html=1;" vertex="1" parent="1">
          <mxGeometry x="350" y="460" width="120" height="100" as="geometry" />
        </mxCell>
        <mxCell id="YXY1S4yLQl2Z7X27-1y_-8" value="" style="shape=document;whiteSpace=wrap;html=1;boundedLbl=1;" vertex="1" parent="1">
          <mxGeometry x="110" y="450" width="120" height="80" as="geometry" />
        </mxCell>
      </root>
    </mxGraphModel>
  </diagram>
</mxfile>
